<svg width="56" height="51" viewBox="0 0 56 51" fill="none" xmlns="http://www.w3.org/2000/svg">
<path d="M40.5 47.5C40.5 46.4583 40.5625 45.4167 40.6875 44.375C40.8542 43.3333 41.0208 42.3125 41.1875 41.3125C41.3958 40.2708 41.5625 39.2292 41.6875 38.1875C41.8542 37.1042 41.9375 36.0208 41.9375 34.9375C40.5625 34.9375 39.375 35 38.375 35.125C37.375 35.25 36.3958 35.375 35.4375 35.5C34.4792 35.625 33.4583 35.7292 32.375 35.8125C31.2917 35.8542 29.9792 35.8333 28.4375 35.75C27.3125 37 26.0208 38.3333 24.5625 39.75C23.1458 41.1667 21.625 42.4792 20 43.6875C18.375 44.8958 16.6667 45.9167 14.875 46.75C13.0833 47.5417 11.2708 47.9375 9.4375 47.9375C8.1875 47.9375 6.97917 47.7292 5.8125 47.3125C4.6875 46.8958 3.6875 46.3125 2.8125 45.5625C1.9375 44.8125 1.25 43.9167 0.75 42.875C0.25 41.7917 0 40.6042 0 39.3125C0 38.6458 0.104167 38.1458 0.3125 37.8125C0.5625 37.4375 1.0625 37.25 1.8125 37.25C2.1875 37.25 2.52083 37.6042 2.8125 38.3125C3.10417 38.9792 3.47917 39.75 3.9375 40.625C4.4375 41.4583 5.0625 42.2292 5.8125 42.9375C6.5625 43.6042 7.58333 43.9375 8.875 43.9375C10.4583 43.9375 12 43.6458 13.5 43.0625C15.0417 42.4375 16.5 41.6667 17.875 40.75C19.2917 39.7917 20.6042 38.7292 21.8125 37.5625C23.0625 36.3958 24.1875 35.25 25.1875 34.125C25.0625 33.0833 24.6875 32.3125 24.0625 31.8125C23.4375 31.3125 22.7708 30.8125 22.0625 30.3125C21.3958 29.8125 20.7917 29.1458 20.25 28.3125C19.7083 27.4792 19.4375 26.1667 19.4375 24.375C19.4375 21.8333 20.2083 19.8542 21.75 18.4375C23.2917 16.9792 25.3958 16.25 28.0625 16.25C28.8542 16.25 29.625 16.3333 30.375 16.5C31.1667 16.6667 31.9583 16.875 32.75 17.125C33.5417 17.3333 34.3125 17.5208 35.0625 17.6875C35.8542 17.8542 36.6458 17.9375 37.4375 17.9375C37.9375 17.9375 38.3333 17.875 38.625 17.75C38.9583 17.625 39.25 17.4375 39.5 17.1875C39.75 16.9375 40.0208 16.6042 40.3125 16.1875C40.6042 15.7708 40.9792 15.2708 41.4375 14.6875C41.6875 14.3542 42.0625 13.8333 42.5625 13.125C43.1042 12.375 43.6875 11.5625 44.3125 10.6875C44.9375 9.77083 45.6042 8.8125 46.3125 7.8125C47.0208 6.8125 47.6875 5.85417 48.3125 4.9375C48.9375 4.02083 49.5 3.20833 50 2.5C50.5 1.79167 50.8542 1.25 51.0625 0.875C51.5208 0.5 51.9375 0.270833 52.3125 0.1875C52.6875 0.0625 53.125 0 53.625 0C54.125 0 54.5 0.1875 54.75 0.5625C55 0.895833 55.1458 1.3125 55.1875 1.8125C55.2708 2.3125 55.2917 2.83333 55.25 3.375C55.25 3.875 55.25 4.27083 55.25 4.5625C55.25 4.6875 55.25 4.89583 55.25 5.1875C55.25 5.4375 55.2292 5.70833 55.1875 6C55.1875 6.29167 55.1875 6.58333 55.1875 6.875C55.1875 7.125 55.1875 7.29167 55.1875 7.375C55.0625 7.79167 54.8542 8.41667 54.5625 9.25C54.3125 10.0833 54.0208 11.0417 53.6875 12.125C53.3542 13.1667 53 14.2708 52.625 15.4375C52.2917 16.6042 51.9583 17.7292 51.625 18.8125C51.3333 19.8958 51.0625 20.8542 50.8125 21.6875C50.5625 22.5208 50.3958 23.1458 50.3125 23.5625C50.2708 23.7708 50.2083 24.1042 50.125 24.5625C50.0417 25.0208 49.9583 25.5208 49.875 26.0625C49.7917 26.5625 49.7083 27.0417 49.625 27.5C49.5417 27.9583 49.5 28.2708 49.5 28.4375C49.875 28.5208 50.25 28.6458 50.625 28.8125C51 28.9792 51.1875 29.25 51.1875 29.625C51.1875 30.0417 51.0208 30.375 50.6875 30.625C50.3958 30.875 50.0417 31.1042 49.625 31.3125C49.2083 31.5208 48.8125 31.7708 48.4375 32.0625C48.1042 32.3542 47.9167 32.7708 47.875 33.3125C47.7917 33.8125 47.6458 34.7292 47.4375 36.0625C47.2292 37.3542 46.9792 38.75 46.6875 40.25C46.4375 41.7083 46.1875 43.0833 45.9375 44.375C45.7292 45.6667 45.5625 46.5625 45.4375 47.0625C45.3958 47.1875 45.3125 47.4167 45.1875 47.75C45.0625 48.0833 44.9167 48.4167 44.75 48.75C44.5833 49.0833 44.4167 49.3958 44.25 49.6875C44.0833 49.9792 43.9583 50.1875 43.875 50.3125C42.875 50.1042 42.0625 49.8542 41.4375 49.5625C40.8125 49.2292 40.5 48.5417 40.5 47.5ZM39.4375 23.5C38.9375 23.5 38.2292 23.8542 37.3125 24.5625C36.4375 25.2708 35.5625 26.1042 34.6875 27.0625C33.8125 27.9792 33.0417 28.9167 32.375 29.875C31.7083 30.7917 31.375 31.4792 31.375 31.9375C31.625 31.9375 32.1042 31.9375 32.8125 31.9375C33.5625 31.8958 34.3333 31.875 35.125 31.875C35.9583 31.8333 36.7292 31.7917 37.4375 31.75C38.1875 31.7083 38.7083 31.6875 39 31.6875C39.1667 31.6875 39.4167 31.6458 39.75 31.5625C40.125 31.4792 40.4792 31.3958 40.8125 31.3125C41.1458 31.2292 41.4375 31.1458 41.6875 31.0625C41.9792 30.9792 42.1458 30.9167 42.1875 30.875C42.2292 30.875 42.25 30.75 42.25 30.5C42.25 30.2083 42.25 29.9792 42.25 29.8125C42.25 29.4792 42.1875 28.9583 42.0625 28.25C41.9792 27.5417 41.8125 26.8333 41.5625 26.125C41.3542 25.4167 41.0625 24.8125 40.6875 24.3125C40.3542 23.7708 39.9375 23.5 39.4375 23.5ZM21.875 23.5625C21.875 24.1458 22.0833 24.8125 22.5 25.5625C22.9167 26.3125 23.4375 27.0208 24.0625 27.6875C24.6875 28.3542 25.3542 28.9167 26.0625 29.375C26.7708 29.8333 27.4375 30.0625 28.0625 30.0625C28.6458 30.0625 29.3333 29.7083 30.125 29C30.9167 28.2917 31.6667 27.4792 32.375 26.5625C33.125 25.6042 33.75 24.6875 34.25 23.8125C34.75 22.9375 35 22.3333 35 22C35 21.2917 34.75 20.7708 34.25 20.4375C33.7917 20.0625 33.2292 19.8125 32.5625 19.6875C31.9375 19.5208 31.2708 19.4375 30.5625 19.4375C29.8542 19.4375 29.2708 19.4375 28.8125 19.4375C28.2292 19.4375 27.5208 19.5 26.6875 19.625C25.8958 19.7083 25.1458 19.8958 24.4375 20.1875C23.7292 20.4792 23.125 20.8958 22.625 21.4375C22.125 21.9792 21.875 22.6875 21.875 23.5625ZM40.625 20.375C41.5417 21.4583 42.3958 22.625 43.1875 23.875C43.9792 25.125 44.7292 26.3958 45.4375 27.6875L51 7.6875L40.625 20.375Z" fill="#FF4136"/>
</svg>
