<svg width="223" height="49" viewBox="0 0 223 49" fill="none" xmlns="http://www.w3.org/2000/svg">
<path d="M12.504 29.912L8.408 40.088C7.768 41.6667 7.448 42.968 7.448 43.992C7.448 45.4 8.088 46.4027 9.368 47H0.216C0.642667 47 1.26133 46.5733 2.072 45.72C2.88267 44.8667 3.82133 43.1813 4.888 40.664L21.592 0.919998L38.168 40.856C39.1067 43.16 40.0027 44.7387 40.856 45.592C41.752 46.4453 42.456 46.9147 42.968 47H32.344C33.4107 46.488 33.944 45.6987 33.944 44.632C33.944 43.736 33.6027 42.456 32.92 40.792L28.44 29.912H12.504ZM27.416 27.288L20.44 10.2L13.592 27.288H27.416ZM68.7905 45.912C67.6812 46.296 66.4012 46.5733 64.9505 46.744C63.5425 46.9147 61.5798 47 59.0625 47H48.5025C49.0572 46.872 49.6545 46.4027 50.2945 45.592C50.9345 44.7387 51.2545 43.1173 51.2545 40.728V9.048C51.2545 6.82933 50.9558 5.31466 50.3585 4.504C49.7612 3.65067 49.1638 3.13867 48.5665 2.968H59.0625C61.7932 2.968 63.8625 3.096 65.2705 3.352C66.7212 3.56533 67.9798 3.90666 69.0465 4.376C70.9238 5.272 72.3745 6.53066 73.3985 8.152C74.4225 9.77333 74.9345 11.5227 74.9345 13.4C74.9345 16.2587 74.0598 18.7333 72.3105 20.824C70.6038 22.872 68.3425 24.1947 65.5265 24.792C67.4465 25.0053 69.2598 25.56 70.9665 26.456C72.7158 27.352 74.1238 28.568 75.1905 30.104C76.2998 31.64 76.8545 33.3893 76.8545 35.352C76.8545 38.0827 76.1292 40.3227 74.6785 42.072C73.2278 43.7787 71.2652 45.0587 68.7905 45.912ZM66.9985 7.448C66.1452 6.808 65.2278 6.33867 64.2465 6.04C63.2652 5.69867 61.9425 5.528 60.2785 5.528H55.8625V23.704H61.0465C62.5825 23.704 63.8625 23.4693 64.8865 23C65.9105 22.5307 66.8065 21.912 67.5745 21.144C68.3852 20.3333 69.0252 19.352 69.4945 18.2C69.9638 17.048 70.1985 15.8747 70.1985 14.68C70.1985 13.2293 69.9212 11.864 69.3665 10.584C68.8545 9.304 68.0652 8.25866 66.9985 7.448ZM68.3425 28.12C67.5318 27.48 66.5292 27.0107 65.3345 26.712C64.1398 26.4133 62.5185 26.264 60.4705 26.264H55.8625V44.44H61.9425C65.0145 44.44 67.4038 43.7147 69.1105 42.264C70.8598 40.8133 71.7345 38.5093 71.7345 35.352C71.7345 32.408 70.6038 29.9973 68.3425 28.12ZM114.986 47C114.986 47.128 115.242 47.0427 115.754 46.744C116.266 46.4027 116.735 45.8053 117.162 44.952C117.588 44.056 117.802 42.7547 117.802 41.048V26.52H93.7375V41.048C93.7375 42.7547 93.9508 44.056 94.3775 44.952C94.8042 45.8053 95.2735 46.3813 95.7855 46.68C96.2975 46.9787 96.5535 47.0853 96.5535 47H86.3775C86.3775 47.128 86.6335 47.0427 87.1455 46.744C87.6575 46.4027 88.1055 45.8053 88.4895 44.952C88.9162 44.056 89.1295 42.7547 89.1295 41.048V8.92C89.1295 7.21333 88.9162 5.93333 88.4895 5.08C88.1055 4.184 87.6575 3.58666 87.1455 3.288C86.6335 2.98933 86.3775 2.88266 86.3775 2.968H96.5535C96.5535 2.88266 96.2975 2.98933 95.7855 3.288C95.2735 3.58666 94.8042 4.184 94.3775 5.08C93.9508 5.93333 93.7375 7.21333 93.7375 8.92V23.704H117.802V8.92C117.802 7.21333 117.588 5.93333 117.162 5.08C116.735 4.184 116.266 3.58666 115.754 3.288C115.242 2.98933 114.986 2.88266 114.986 2.968H125.162C125.162 2.84 124.906 2.94666 124.394 3.288C123.882 3.58666 123.412 4.184 122.986 5.08C122.602 5.93333 122.41 7.21333 122.41 8.92V41.048C122.41 42.7547 122.623 44.056 123.05 44.952C123.476 45.8053 123.946 46.3813 124.458 46.68C124.97 46.9787 125.226 47.0853 125.226 47H114.986ZM176.219 2.968C175.621 3.096 175.024 3.58666 174.427 4.44C173.872 5.25067 173.595 6.70133 173.595 8.792V48.792L140.827 10.584V41.24C140.827 43.288 141.189 44.7387 141.915 45.592C142.64 46.4027 143.344 46.872 144.027 47H135.003C135.6 46.872 136.197 46.4027 136.795 45.592C137.435 44.7387 137.755 43.2667 137.755 41.176V9.176C137.755 7.72533 137.264 6.40267 136.283 5.208C135.301 4.01333 134.064 3.26666 132.571 2.968H140.507L170.523 37.976V8.792C170.523 5.50667 169.413 3.56533 167.194 2.968H176.219ZM214.926 6.36C214.926 5.50666 214.691 4.78133 214.222 4.184C213.753 3.544 213.027 3.13867 212.046 2.968H222.798C222.243 3.05333 221.497 3.544 220.558 4.44C219.619 5.336 218.638 7 217.614 9.432L201.422 48.536L184.974 9.24C184.035 6.97867 183.097 5.42133 182.158 4.568C181.262 3.672 180.515 3.13867 179.918 2.968H190.606C189.454 3.26666 188.878 4.01333 188.878 5.208C188.878 5.848 189.027 6.53067 189.326 7.256C189.625 7.98133 189.795 8.408 189.838 8.536L202.254 38.936L214.286 9.368C214.713 8.38667 214.926 7.384 214.926 6.36Z" fill="url(#paint0_linear_51_114)"/>
<defs>
<linearGradient id="paint0_linear_51_114" x1="-1" y1="28.5" x2="221" y2="28.5" gradientUnits="userSpaceOnUse">
<stop stop-color="#FFA62E"/>
<stop offset="1" stop-color="#FF4136"/>
</linearGradient>
</defs>
</svg>
