<svg width="72" height="72" viewBox="0 0 72 72" fill="none" xmlns="http://www.w3.org/2000/svg">
<path d="M0 8C0 3.58172 3.58172 0 8 0H64C68.4183 0 72 3.58172 72 8V64C72 68.4183 68.4183 72 64 72H8C3.58172 72 0 68.4183 0 64V8Z" fill="url(#paint0_linear_51_111)"/>
<path d="M48.5 58.5C48.5 57.4583 48.5625 56.4167 48.6875 55.375C48.8542 54.3333 49.0208 53.3125 49.1875 52.3125C49.3958 51.2708 49.5625 50.2292 49.6875 49.1875C49.8542 48.1042 49.9375 47.0208 49.9375 45.9375C48.5625 45.9375 47.375 46 46.375 46.125C45.375 46.25 44.3958 46.375 43.4375 46.5C42.4792 46.625 41.4583 46.7292 40.375 46.8125C39.2917 46.8542 37.9792 46.8333 36.4375 46.75C35.3125 48 34.0208 49.3333 32.5625 50.75C31.1458 52.1667 29.625 53.4792 28 54.6875C26.375 55.8958 24.6667 56.9167 22.875 57.75C21.0833 58.5417 19.2708 58.9375 17.4375 58.9375C16.1875 58.9375 14.9792 58.7292 13.8125 58.3125C12.6875 57.8958 11.6875 57.3125 10.8125 56.5625C9.9375 55.8125 9.25 54.9167 8.75 53.875C8.25 52.7917 8 51.6042 8 50.3125C8 49.6458 8.10417 49.1458 8.3125 48.8125C8.5625 48.4375 9.0625 48.25 9.8125 48.25C10.1875 48.25 10.5208 48.6042 10.8125 49.3125C11.1042 49.9792 11.4792 50.75 11.9375 51.625C12.4375 52.4583 13.0625 53.2292 13.8125 53.9375C14.5625 54.6042 15.5833 54.9375 16.875 54.9375C18.4583 54.9375 20 54.6458 21.5 54.0625C23.0417 53.4375 24.5 52.6667 25.875 51.75C27.2917 50.7917 28.6042 49.7292 29.8125 48.5625C31.0625 47.3958 32.1875 46.25 33.1875 45.125C33.0625 44.0833 32.6875 43.3125 32.0625 42.8125C31.4375 42.3125 30.7708 41.8125 30.0625 41.3125C29.3958 40.8125 28.7917 40.1458 28.25 39.3125C27.7083 38.4792 27.4375 37.1667 27.4375 35.375C27.4375 32.8333 28.2083 30.8542 29.75 29.4375C31.2917 27.9792 33.3958 27.25 36.0625 27.25C36.8542 27.25 37.625 27.3333 38.375 27.5C39.1667 27.6667 39.9583 27.875 40.75 28.125C41.5417 28.3333 42.3125 28.5208 43.0625 28.6875C43.8542 28.8542 44.6458 28.9375 45.4375 28.9375C45.9375 28.9375 46.3333 28.875 46.625 28.75C46.9583 28.625 47.25 28.4375 47.5 28.1875C47.75 27.9375 48.0208 27.6042 48.3125 27.1875C48.6042 26.7708 48.9792 26.2708 49.4375 25.6875C49.6875 25.3542 50.0625 24.8333 50.5625 24.125C51.1042 23.375 51.6875 22.5625 52.3125 21.6875C52.9375 20.7708 53.6042 19.8125 54.3125 18.8125C55.0208 17.8125 55.6875 16.8542 56.3125 15.9375C56.9375 15.0208 57.5 14.2083 58 13.5C58.5 12.7917 58.8542 12.25 59.0625 11.875C59.5208 11.5 59.9375 11.2708 60.3125 11.1875C60.6875 11.0625 61.125 11 61.625 11C62.125 11 62.5 11.1875 62.75 11.5625C63 11.8958 63.1458 12.3125 63.1875 12.8125C63.2708 13.3125 63.2917 13.8333 63.25 14.375C63.25 14.875 63.25 15.2708 63.25 15.5625C63.25 15.6875 63.25 15.8958 63.25 16.1875C63.25 16.4375 63.2292 16.7083 63.1875 17C63.1875 17.2917 63.1875 17.5833 63.1875 17.875C63.1875 18.125 63.1875 18.2917 63.1875 18.375C63.0625 18.7917 62.8542 19.4167 62.5625 20.25C62.3125 21.0833 62.0208 22.0417 61.6875 23.125C61.3542 24.1667 61 25.2708 60.625 26.4375C60.2917 27.6042 59.9583 28.7292 59.625 29.8125C59.3333 30.8958 59.0625 31.8542 58.8125 32.6875C58.5625 33.5208 58.3958 34.1458 58.3125 34.5625C58.2708 34.7708 58.2083 35.1042 58.125 35.5625C58.0417 36.0208 57.9583 36.5208 57.875 37.0625C57.7917 37.5625 57.7083 38.0417 57.625 38.5C57.5417 38.9583 57.5 39.2708 57.5 39.4375C57.875 39.5208 58.25 39.6458 58.625 39.8125C59 39.9792 59.1875 40.25 59.1875 40.625C59.1875 41.0417 59.0208 41.375 58.6875 41.625C58.3958 41.875 58.0417 42.1042 57.625 42.3125C57.2083 42.5208 56.8125 42.7708 56.4375 43.0625C56.1042 43.3542 55.9167 43.7708 55.875 44.3125C55.7917 44.8125 55.6458 45.7292 55.4375 47.0625C55.2292 48.3542 54.9792 49.75 54.6875 51.25C54.4375 52.7083 54.1875 54.0833 53.9375 55.375C53.7292 56.6667 53.5625 57.5625 53.4375 58.0625C53.3958 58.1875 53.3125 58.4167 53.1875 58.75C53.0625 59.0833 52.9167 59.4167 52.75 59.75C52.5833 60.0833 52.4167 60.3958 52.25 60.6875C52.0833 60.9792 51.9583 61.1875 51.875 61.3125C50.875 61.1042 50.0625 60.8542 49.4375 60.5625C48.8125 60.2292 48.5 59.5417 48.5 58.5ZM47.4375 34.5C46.9375 34.5 46.2292 34.8542 45.3125 35.5625C44.4375 36.2708 43.5625 37.1042 42.6875 38.0625C41.8125 38.9792 41.0417 39.9167 40.375 40.875C39.7083 41.7917 39.375 42.4792 39.375 42.9375C39.625 42.9375 40.1042 42.9375 40.8125 42.9375C41.5625 42.8958 42.3333 42.875 43.125 42.875C43.9583 42.8333 44.7292 42.7917 45.4375 42.75C46.1875 42.7083 46.7083 42.6875 47 42.6875C47.1667 42.6875 47.4167 42.6458 47.75 42.5625C48.125 42.4792 48.4792 42.3958 48.8125 42.3125C49.1458 42.2292 49.4375 42.1458 49.6875 42.0625C49.9792 41.9792 50.1458 41.9167 50.1875 41.875C50.2292 41.875 50.25 41.75 50.25 41.5C50.25 41.2083 50.25 40.9792 50.25 40.8125C50.25 40.4792 50.1875 39.9583 50.0625 39.25C49.9792 38.5417 49.8125 37.8333 49.5625 37.125C49.3542 36.4167 49.0625 35.8125 48.6875 35.3125C48.3542 34.7708 47.9375 34.5 47.4375 34.5ZM29.875 34.5625C29.875 35.1458 30.0833 35.8125 30.5 36.5625C30.9167 37.3125 31.4375 38.0208 32.0625 38.6875C32.6875 39.3542 33.3542 39.9167 34.0625 40.375C34.7708 40.8333 35.4375 41.0625 36.0625 41.0625C36.6458 41.0625 37.3333 40.7083 38.125 40C38.9167 39.2917 39.6667 38.4792 40.375 37.5625C41.125 36.6042 41.75 35.6875 42.25 34.8125C42.75 33.9375 43 33.3333 43 33C43 32.2917 42.75 31.7708 42.25 31.4375C41.7917 31.0625 41.2292 30.8125 40.5625 30.6875C39.9375 30.5208 39.2708 30.4375 38.5625 30.4375C37.8542 30.4375 37.2708 30.4375 36.8125 30.4375C36.2292 30.4375 35.5208 30.5 34.6875 30.625C33.8958 30.7083 33.1458 30.8958 32.4375 31.1875C31.7292 31.4792 31.125 31.8958 30.625 32.4375C30.125 32.9792 29.875 33.6875 29.875 34.5625ZM48.625 31.375C49.5417 32.4583 50.3958 33.625 51.1875 34.875C51.9792 36.125 52.7292 37.3958 53.4375 38.6875L59 18.6875L48.625 31.375Z" fill="white"/>
<defs>
<linearGradient id="paint0_linear_51_111" x1="0" y1="36" x2="72" y2="36" gradientUnits="userSpaceOnUse">
<stop stop-color="#FFA62E"/>
<stop offset="1" stop-color="#FF4136"/>
</linearGradient>
</defs>
</svg>
